<svg width="16" height="16" viewBox="0 0 16 16" fill="none" xmlns="http://www.w3.org/2000/svg">
<rect width="16" height="16" fill=""/>
<path d="M1.23619 12.844C1.54819 12.688 1.79086 12.4887 1.96419 12.246C2.13752 12.0033 2.28052 11.6913 2.39319 11.31C2.51452 10.92 2.69219 10.2527 2.92619 9.308L3.92719 5.304L4.56419 2.6H5.08419L7.37219 11.999C7.50219 12.5623 7.78386 12.844 8.21719 12.844V13H5.04519V12.844C5.23586 12.844 5.40486 12.8007 5.55219 12.714C5.69952 12.6187 5.77319 12.4713 5.77319 12.272C5.77319 12.1767 5.76452 12.103 5.74719 12.051L5.17519 9.698H3.03019L2.80919 10.608C2.71386 11.0067 2.66619 11.336 2.66619 11.596C2.66619 12.012 2.78752 12.324 3.03019 12.532C3.28152 12.74 3.68019 12.844 4.22619 12.844H4.34319V13H1.23619V12.844ZM5.13619 9.516L4.12219 5.304L3.08219 9.516H5.13619ZM10.6301 13.208C10.3788 13.208 10.1231 13.1387 9.86311 13C9.60311 12.8613 9.38645 12.6533 9.21311 12.376C9.03978 12.09 8.95311 11.7433 8.95311 11.336C8.95311 10.79 9.11778 10.3047 9.44711 9.88C9.77645 9.45533 10.1621 9.10433 10.6041 8.827C11.0461 8.54967 11.6094 8.242 12.2941 7.904C12.2681 7.02867 12.1944 6.36133 12.0731 5.902C11.9518 5.434 11.7394 5.2 11.4361 5.2C11.1761 5.2 10.9334 5.34733 10.7081 5.642C10.4828 5.928 10.3008 6.318 10.1621 6.812C10.0321 7.306 9.96711 7.84333 9.96711 8.424H9.83711C9.79378 7.84333 9.70711 7.36667 9.57711 6.994C9.44711 6.61267 9.28678 6.22267 9.09611 5.824C9.66811 5.52933 10.1188 5.32133 10.4481 5.2C10.7861 5.07 11.1328 5.005 11.4881 5.005C12.3114 5.005 12.9138 5.252 13.2951 5.746C13.6851 6.23133 13.8801 7.007 13.8801 8.073V10.959V11.375C13.8801 11.7217 13.8974 11.9687 13.9321 12.116C13.9668 12.2633 14.0491 12.337 14.1791 12.337C14.3004 12.337 14.4738 12.2677 14.6991 12.129L14.7641 12.259C14.5301 12.493 14.2831 12.7097 14.0231 12.909C13.7631 13.1083 13.4944 13.208 13.2171 13.208C12.8878 13.208 12.6494 13.104 12.5021 12.896C12.3548 12.688 12.2811 12.415 12.2811 12.077L12.2941 10.686C12.1988 11.492 12.0384 12.116 11.8131 12.558C11.5878 12.9913 11.1934 13.208 10.6301 13.208ZM10.6691 11.011C10.6691 11.531 10.7168 11.9253 10.8121 12.194C10.9161 12.4627 11.0591 12.597 11.2411 12.597C11.5964 12.597 11.8608 12.194 12.0341 11.388C12.2074 10.5733 12.2941 9.607 12.2941 8.489V8.047C11.7654 8.359 11.3624 8.75767 11.0851 9.243C10.8078 9.71967 10.6691 10.309 10.6691 11.011Z" fill="#838383"/>
</svg>
